<mxfile host="app.diagrams.net" modified="2023-11-30T09:13:17.406Z" agent="Mozilla/5.0 (Windows NT 10.0; Win64; x64; rv:120.0) Gecko/20100101 Firefox/120.0" etag="bkxQ-DgmsRtMpBlp2PJR" version="22.1.5" type="github">
  <diagram name="Page-1" id="PP0QZATuwXcqu7ek5Igw">
    <mxGraphModel dx="1430" dy="761" grid="1" gridSize="10" guides="1" tooltips="1" connect="1" arrows="1" fold="1" page="1" pageScale="1" pageWidth="1200" pageHeight="1920" math="0" shadow="0">
      <root>
        <mxCell id="0" />
        <mxCell id="1" parent="0" />
        <mxCell id="F79UIWX3s6UdKWvn8R5f-1" value="Actor" style="shape=umlActor;verticalLabelPosition=bottom;verticalAlign=top;html=1;outlineConnect=0;" vertex="1" parent="1">
          <mxGeometry x="320" y="320" width="30" height="60" as="geometry" />
        </mxCell>
        <mxCell id="F79UIWX3s6UdKWvn8R5f-2" value="View tìm kiếm" style="shape=umlBoundary;whiteSpace=wrap;html=1;" vertex="1" parent="1">
          <mxGeometry x="585" y="325" width="80" height="70" as="geometry" />
        </mxCell>
        <mxCell id="F79UIWX3s6UdKWvn8R5f-3" value="control tìm kiếm" style="ellipse;shape=umlControl;whiteSpace=wrap;html=1;" vertex="1" parent="1">
          <mxGeometry x="760" y="320" width="70" height="80" as="geometry" />
        </mxCell>
        <mxCell id="F79UIWX3s6UdKWvn8R5f-4" value="CSDL Firebase" style="ellipse;shape=umlEntity;whiteSpace=wrap;html=1;" vertex="1" parent="1">
          <mxGeometry x="925" y="325" width="70" height="70" as="geometry" />
        </mxCell>
        <mxCell id="F79UIWX3s6UdKWvn8R5f-6" value="alt" style="shape=umlFrame;whiteSpace=wrap;html=1;pointerEvents=0;" vertex="1" parent="1">
          <mxGeometry x="220" y="460" width="840" height="380" as="geometry" />
        </mxCell>
        <mxCell id="F79UIWX3s6UdKWvn8R5f-7" value="" style="html=1;points=[[0,0,0,0,5],[0,1,0,0,-5],[1,0,0,0,5],[1,1,0,0,-5]];perimeter=orthogonalPerimeter;outlineConnect=0;targetShapes=umlLifeline;portConstraint=eastwest;newEdgeStyle={&quot;curved&quot;:0,&quot;rounded&quot;:0};" vertex="1" parent="1">
          <mxGeometry x="330" y="500" width="10" height="280" as="geometry" />
        </mxCell>
        <mxCell id="F79UIWX3s6UdKWvn8R5f-8" value="" style="html=1;points=[[0,0,0,0,5],[0,1,0,0,-5],[1,0,0,0,5],[1,1,0,0,-5]];perimeter=orthogonalPerimeter;outlineConnect=0;targetShapes=umlLifeline;portConstraint=eastwest;newEdgeStyle={&quot;curved&quot;:0,&quot;rounded&quot;:0};" vertex="1" parent="1">
          <mxGeometry x="625" y="520" width="10" height="80" as="geometry" />
        </mxCell>
        <mxCell id="F79UIWX3s6UdKWvn8R5f-9" value="" style="html=1;points=[[0,0,0,0,5],[0,1,0,0,-5],[1,0,0,0,5],[1,1,0,0,-5]];perimeter=orthogonalPerimeter;outlineConnect=0;targetShapes=umlLifeline;portConstraint=eastwest;newEdgeStyle={&quot;curved&quot;:0,&quot;rounded&quot;:0};" vertex="1" parent="1">
          <mxGeometry x="790" y="630" width="10" height="50" as="geometry" />
        </mxCell>
        <mxCell id="F79UIWX3s6UdKWvn8R5f-10" value="" style="html=1;points=[[0,0,0,0,5],[0,1,0,0,-5],[1,0,0,0,5],[1,1,0,0,-5]];perimeter=orthogonalPerimeter;outlineConnect=0;targetShapes=umlLifeline;portConstraint=eastwest;newEdgeStyle={&quot;curved&quot;:0,&quot;rounded&quot;:0};" vertex="1" parent="1">
          <mxGeometry x="955" y="650" width="10" height="110" as="geometry" />
        </mxCell>
        <mxCell id="F79UIWX3s6UdKWvn8R5f-11" value="" style="endArrow=none;dashed=1;html=1;rounded=0;" edge="1" parent="1" source="F79UIWX3s6UdKWvn8R5f-7" target="F79UIWX3s6UdKWvn8R5f-1">
          <mxGeometry width="50" height="50" relative="1" as="geometry">
            <mxPoint x="570" y="860" as="sourcePoint" />
            <mxPoint x="620" y="810" as="targetPoint" />
          </mxGeometry>
        </mxCell>
        <mxCell id="F79UIWX3s6UdKWvn8R5f-12" value="Chọn chức năng tìm kiếm giao dịch" style="endArrow=block;endFill=1;html=1;align=left;verticalAlign=top;rounded=0;" edge="1" parent="1" target="F79UIWX3s6UdKWvn8R5f-8">
          <mxGeometry x="-1" relative="1" as="geometry">
            <mxPoint x="340" y="520" as="sourcePoint" />
            <mxPoint x="500" y="520" as="targetPoint" />
            <mxPoint as="offset" />
          </mxGeometry>
        </mxCell>
        <mxCell id="F79UIWX3s6UdKWvn8R5f-13" value="1" style="edgeLabel;resizable=0;html=1;align=left;verticalAlign=bottom;" connectable="0" vertex="1" parent="F79UIWX3s6UdKWvn8R5f-12">
          <mxGeometry x="-1" relative="1" as="geometry" />
        </mxCell>
        <mxCell id="F79UIWX3s6UdKWvn8R5f-14" value="" style="endArrow=none;dashed=1;html=1;rounded=0;entryX=0.582;entryY=1.002;entryDx=0;entryDy=0;entryPerimeter=0;" edge="1" parent="1" source="F79UIWX3s6UdKWvn8R5f-8" target="F79UIWX3s6UdKWvn8R5f-2">
          <mxGeometry width="50" height="50" relative="1" as="geometry">
            <mxPoint x="549.52" y="520" as="sourcePoint" />
            <mxPoint x="549.52" y="400" as="targetPoint" />
          </mxGeometry>
        </mxCell>
        <mxCell id="F79UIWX3s6UdKWvn8R5f-15" value="Hiển thị view cho phép chọn khoảng thời gian cần tìm" style="endArrow=block;endFill=1;html=1;align=left;verticalAlign=top;rounded=0;" edge="1" parent="1" source="F79UIWX3s6UdKWvn8R5f-8" target="F79UIWX3s6UdKWvn8R5f-7">
          <mxGeometry x="1" y="5" relative="1" as="geometry">
            <mxPoint x="400" y="660" as="sourcePoint" />
            <mxPoint x="560" y="660" as="targetPoint" />
            <mxPoint as="offset" />
          </mxGeometry>
        </mxCell>
        <mxCell id="F79UIWX3s6UdKWvn8R5f-16" value="2" style="edgeLabel;resizable=0;html=1;align=left;verticalAlign=bottom;" connectable="0" vertex="1" parent="F79UIWX3s6UdKWvn8R5f-15">
          <mxGeometry x="-1" relative="1" as="geometry">
            <mxPoint x="-200" as="offset" />
          </mxGeometry>
        </mxCell>
        <mxCell id="F79UIWX3s6UdKWvn8R5f-17" value="Chọn thông tin và nhận button tìm kiếm" style="endArrow=block;endFill=1;html=1;align=left;verticalAlign=top;rounded=0;" edge="1" parent="1" target="F79UIWX3s6UdKWvn8R5f-9">
          <mxGeometry x="-0.9" relative="1" as="geometry">
            <mxPoint x="340" y="639.76" as="sourcePoint" />
            <mxPoint x="500" y="640" as="targetPoint" />
            <mxPoint as="offset" />
          </mxGeometry>
        </mxCell>
        <mxCell id="F79UIWX3s6UdKWvn8R5f-18" value="3" style="edgeLabel;resizable=0;html=1;align=left;verticalAlign=bottom;" connectable="0" vertex="1" parent="F79UIWX3s6UdKWvn8R5f-17">
          <mxGeometry x="-1" relative="1" as="geometry" />
        </mxCell>
        <mxCell id="F79UIWX3s6UdKWvn8R5f-19" value="Gửi thông tin vừa chọn" style="endArrow=block;endFill=1;html=1;align=left;verticalAlign=top;rounded=0;" edge="1" parent="1" source="F79UIWX3s6UdKWvn8R5f-9" target="F79UIWX3s6UdKWvn8R5f-10">
          <mxGeometry x="-1" relative="1" as="geometry">
            <mxPoint x="750" y="660" as="sourcePoint" />
            <mxPoint x="910" y="660" as="targetPoint" />
          </mxGeometry>
        </mxCell>
        <mxCell id="F79UIWX3s6UdKWvn8R5f-20" value="4" style="edgeLabel;resizable=0;html=1;align=left;verticalAlign=bottom;" connectable="0" vertex="1" parent="F79UIWX3s6UdKWvn8R5f-19">
          <mxGeometry x="-1" relative="1" as="geometry" />
        </mxCell>
        <mxCell id="F79UIWX3s6UdKWvn8R5f-21" value="Xử lý tìm kiếm" style="endArrow=block;endFill=1;html=1;align=left;verticalAlign=top;rounded=0;exitX=1;exitY=0;exitDx=0;exitDy=5;exitPerimeter=0;edgeStyle=orthogonalEdgeStyle;" edge="1" parent="1" target="F79UIWX3s6UdKWvn8R5f-10">
          <mxGeometry x="-0.193" y="-30" relative="1" as="geometry">
            <mxPoint x="965" y="660" as="sourcePoint" />
            <mxPoint x="965" y="855" as="targetPoint" />
            <Array as="points">
              <mxPoint x="1010" y="660" />
              <mxPoint x="1010" y="750" />
            </Array>
            <mxPoint as="offset" />
          </mxGeometry>
        </mxCell>
        <mxCell id="F79UIWX3s6UdKWvn8R5f-22" value="5" style="edgeLabel;resizable=0;html=1;align=left;verticalAlign=bottom;" connectable="0" vertex="1" parent="F79UIWX3s6UdKWvn8R5f-21">
          <mxGeometry x="-1" relative="1" as="geometry" />
        </mxCell>
        <mxCell id="F79UIWX3s6UdKWvn8R5f-23" value="" style="endArrow=none;dashed=1;html=1;rounded=0;" edge="1" parent="1" source="F79UIWX3s6UdKWvn8R5f-24" target="F79UIWX3s6UdKWvn8R5f-8">
          <mxGeometry width="50" height="50" relative="1" as="geometry">
            <mxPoint x="550" y="720" as="sourcePoint" />
            <mxPoint x="600" y="670" as="targetPoint" />
          </mxGeometry>
        </mxCell>
        <mxCell id="F79UIWX3s6UdKWvn8R5f-24" value="" style="html=1;points=[[0,0,0,0,5],[0,1,0,0,-5],[1,0,0,0,5],[1,1,0,0,-5]];perimeter=orthogonalPerimeter;outlineConnect=0;targetShapes=umlLifeline;portConstraint=eastwest;newEdgeStyle={&quot;curved&quot;:0,&quot;rounded&quot;:0};" vertex="1" parent="1">
          <mxGeometry x="625" y="725" width="10" height="80" as="geometry" />
        </mxCell>
        <mxCell id="F79UIWX3s6UdKWvn8R5f-25" value="Trả về kết quả tìm kiếm" style="endArrow=block;endFill=1;html=1;align=left;verticalAlign=top;rounded=0;" edge="1" parent="1">
          <mxGeometry x="0.6129" relative="1" as="geometry">
            <mxPoint x="955" y="750" as="sourcePoint" />
            <mxPoint x="800" y="750" as="targetPoint" />
            <Array as="points">
              <mxPoint x="900" y="750" />
            </Array>
            <mxPoint as="offset" />
          </mxGeometry>
        </mxCell>
        <mxCell id="F79UIWX3s6UdKWvn8R5f-26" value="6" style="edgeLabel;resizable=0;html=1;align=left;verticalAlign=bottom;" connectable="0" vertex="1" parent="F79UIWX3s6UdKWvn8R5f-25">
          <mxGeometry x="-1" relative="1" as="geometry">
            <mxPoint x="-150" y="3" as="offset" />
          </mxGeometry>
        </mxCell>
        <mxCell id="F79UIWX3s6UdKWvn8R5f-27" value="" style="endArrow=block;endFill=1;align=left;verticalAlign=top;rounded=0;textDirection=ltr;html=1;snapToPoint=0;fixDash=0;orthogonal=0;comic=0;" edge="1" parent="1" source="F79UIWX3s6UdKWvn8R5f-29" target="F79UIWX3s6UdKWvn8R5f-24">
          <mxGeometry x="0.6774" y="55" relative="1" as="geometry">
            <mxPoint x="590" y="870" as="sourcePoint" />
            <mxPoint x="270" y="870" as="targetPoint" />
            <mxPoint as="offset" />
          </mxGeometry>
        </mxCell>
        <mxCell id="F79UIWX3s6UdKWvn8R5f-28" value="1" style="edgeLabel;resizable=0;html=1;align=left;verticalAlign=bottom;" connectable="0" vertex="1" parent="F79UIWX3s6UdKWvn8R5f-27">
          <mxGeometry x="-1" relative="1" as="geometry" />
        </mxCell>
        <mxCell id="F79UIWX3s6UdKWvn8R5f-29" value="" style="html=1;points=[[0,0,0,0,5],[0,1,0,0,-5],[1,0,0,0,5],[1,1,0,0,-5]];perimeter=orthogonalPerimeter;outlineConnect=0;targetShapes=umlLifeline;portConstraint=eastwest;newEdgeStyle={&quot;curved&quot;:0,&quot;rounded&quot;:0};" vertex="1" parent="1">
          <mxGeometry x="790" y="740" width="10" height="50" as="geometry" />
        </mxCell>
        <mxCell id="F79UIWX3s6UdKWvn8R5f-30" value="Hệ thống hiển thị kết quả tìm kiếm cho người dùng" style="text;html=1;strokeColor=none;fillColor=none;align=center;verticalAlign=middle;whiteSpace=wrap;rounded=0;overflow=fill;" vertex="1" parent="1">
          <mxGeometry x="650" y="770" width="140" height="40" as="geometry" />
        </mxCell>
        <mxCell id="F79UIWX3s6UdKWvn8R5f-31" value="Hệ thống hiển thị kết quả tìm kiếm cho người dùng" style="endArrow=block;endFill=1;html=1;align=left;verticalAlign=top;rounded=0;" edge="1" parent="1">
          <mxGeometry x="0.8596" y="5" relative="1" as="geometry">
            <mxPoint x="625" y="764.76" as="sourcePoint" />
            <mxPoint x="340" y="764.76" as="targetPoint" />
            <mxPoint as="offset" />
          </mxGeometry>
        </mxCell>
        <mxCell id="F79UIWX3s6UdKWvn8R5f-32" value="8" style="edgeLabel;resizable=0;html=1;align=left;verticalAlign=bottom;" connectable="0" vertex="1" parent="F79UIWX3s6UdKWvn8R5f-31">
          <mxGeometry x="-1" relative="1" as="geometry">
            <mxPoint x="-285" as="offset" />
          </mxGeometry>
        </mxCell>
        <mxCell id="F79UIWX3s6UdKWvn8R5f-33" value="7" style="text;html=1;align=center;verticalAlign=middle;resizable=0;points=[];autosize=1;strokeColor=none;fillColor=none;" vertex="1" parent="1">
          <mxGeometry x="635" y="738" width="30" height="30" as="geometry" />
        </mxCell>
        <mxCell id="F79UIWX3s6UdKWvn8R5f-34" value="" style="endArrow=none;dashed=1;html=1;rounded=0;entryX=0.416;entryY=1.02;entryDx=0;entryDy=0;entryPerimeter=0;" edge="1" parent="1" source="F79UIWX3s6UdKWvn8R5f-9" target="F79UIWX3s6UdKWvn8R5f-3">
          <mxGeometry width="50" height="50" relative="1" as="geometry">
            <mxPoint x="550" y="650" as="sourcePoint" />
            <mxPoint x="600" y="600" as="targetPoint" />
          </mxGeometry>
        </mxCell>
        <mxCell id="F79UIWX3s6UdKWvn8R5f-35" value="" style="endArrow=none;dashed=1;html=1;rounded=0;entryX=0.5;entryY=1;entryDx=0;entryDy=0;" edge="1" parent="1" source="F79UIWX3s6UdKWvn8R5f-10" target="F79UIWX3s6UdKWvn8R5f-4">
          <mxGeometry width="50" height="50" relative="1" as="geometry">
            <mxPoint x="905" y="460" as="sourcePoint" />
            <mxPoint x="955" y="410" as="targetPoint" />
          </mxGeometry>
        </mxCell>
      </root>
    </mxGraphModel>
  </diagram>
</mxfile>
